# xmcd
# 
# Track frame offsets:
#     187
#     14132
#     30382
#     32837
#     47665
#     58920
#     71417
#     82280
#     95792
#     111512
#     137487
#     151787
#     169312
#     174930
#     198157
#     217155
#     241992
#     257747
# 
# Disc length: 3679
# 
# Revision: 1
# Processed by: cddbd v1.5.2PL0 Copyright (c) Steve Scherf et al.
# Submitted via: BonkEnc v1.0.8
# 
DISCID=050e5d12
DTITLE=Various Artist - Blues Brothers 2000
DYEAR=1998
DGENRE=Blues
TTITLE0=Paul Butterfield Blues Band - Born In Chicago
TTITLE1=Matt "Guitar" Murphy - The Blues Don't Bother Me
TTITLE2=John Popper - Harmonica Musings
TTITLE3=The Blues Brothers Band - Cheaper To Keep Her
TTITLE4=The Blues Brothers Band - Perry Mason Theme
TTITLE5=The Blues Brothers Band - Looking For A Fox
TTITLE6=The Blues Brothers Band - Can't Turn You Loose
TTITLE7=Aretha Franklin - Respect
TTITLE8=The Blues Brothers Band - 634 - 5789
TTITLE9=Blues Traveler - Maybe I'm Wrong
TTITLE10=The Blues Brothers Band - Riders In The Sky
TTITLE11=Taj Mahal, Sam Moore, Joe Morton and Others - John The Revelator
TTITLE12=The Carl LaFong Trio - Let There Be Drums
TTITLE13=The Blues Brothers Band - Season Of The Witch
TTITLE14=The Blues Brothers - Funky Nassau
TTITLE15=The Louisiana Gator Boys - How Blue Can You Get
TTITLE16=The Blues Brothers Band - Turn On Your Love Light
TTITLE17=The Blues Brothers and The Louisianna Gator Boys - New Orleans
EXTD=
EXTT0=
EXTT1=
EXTT2=
EXTT3=
EXTT4=
EXTT5=
EXTT6=
EXTT7=
EXTT8=
EXTT9=
EXTT10=
EXTT11=
EXTT12=
EXTT13=
EXTT14=
EXTT15=
EXTT16=
EXTT17=
PLAYORDER=
